<?xml version="1.0" encoding="UTF-8" standalone="no"?>
<!-- Created with Inkscape (http://www.inkscape.org/) -->

<svg
   width="332.53278mm"
   height="115.80664mm"
   viewBox="0 0 332.53277 115.80664"
   version="1.1"
   id="svg1"
   xml:space="preserve"
   xmlns="http://www.w3.org/2000/svg"
   xmlns:svg="http://www.w3.org/2000/svg"><defs
     id="defs1" /><g
     id="layer1"
     transform="translate(-3.3230223,-75.378909)"><text
       x="152.41882"
       y="162.00972"
       font-family="system-ui, '-apple-system', sans-serif"
       font-size="91.4034px"
       font-weight="700"
       fill="#e0e0e0"
       letter-spacing="-0.02em"
       id="text1"
       style="display:inline;stroke-width:3.2644">fold</text><g
       id="g4"><path
         style="fill:#e94560;stroke-linecap:square;stroke-miterlimit:2.9;paint-order:fill markers stroke"
         d="m 66.566406,80.798828 -43.132812,0.248047 -4.012702,0.04791 3.215827,2.352485 43.966797,33.20312 17.058593,37.58789 -17.970703,18.17578 0.01563,-37.36523 v -1.23031 l -2.694375,-2.27096 0.02641,3.49931 -0.01953,43.86524 23.832031,-24.10352 -18.099609,-39.8789 -41.357422,-31.236327 38.195313,-0.220703 38.259766,32.5957 1.01562,0.86523 -0.0361,-3.54526 0.75096,0.64683 z"
         id="path1" /><path
         style="display:inline;fill:#e94560;stroke-linecap:square;stroke-miterlimit:2.9;paint-order:fill markers stroke"
         d="m 119.10742,89.814453 -22.257811,8 -3.27182,1.091374 2.366721,2.045523 1.809396,-0.62518 21.050784,-7.566404 11.78125,7.208984 -13.37891,7.87305 -2.71484,12.71484 -27.306643,22.41797 -1.637239,1.30602 1.164824,2.58663 2.165774,-1.83015 28.029294,-23.01172 2.66407,-12.47851 16.20117,-9.53321 z"
         id="path2" /><path
         style="fill:#e94560;stroke-linecap:square;stroke-miterlimit:2.9;paint-order:fill markers stroke"
         d="m 70.224609,75.378906 -63.1523434,0.398438 -3.7492426,0.04066 2.9504145,2.355824 51.6972655,39.332032 -0.304687,73.67969 35.728515,-35.62305 -2.194955,-4.74412 31.780894,-25.96486 2.4375,-12.38477 20.83789,-12.628906 -26.49414,-16.328125 -28.496095,9.888672 z m -0.980468,2.675781 21.449218,18.371094 28.746091,-9.978515 21.69922,13.373046 -18.11133,10.976568 -2.48046,12.59765 -32.013677,26.15039 -0.438983,0.35309 2.239764,4.94965 -29.972656,29.88086 0.285156,-68.54102 -49.638671,-37.767578 z"
         id="path3" /></g></g></svg>
